#Comment line ignore any data following # character 
#Hierarchical Translation and Rotation (.htr) file 
[Header]	
#Header keywords are followed by a single value 
FileType HTR		#Single word string
DataType HTRS		#Translation followed by rotation and scale data
FileVersion 1		#integer
NumSegments 64		#integer
NumFrames 3		#integer
DataFrameRate 30		#integer, data frame rate in this file
EulerRotationOrder ZYX
CalibrationUnits mm
RotationUnits Degrees
GlobalAxisofGravity Y
BoneLengthAxis Y
ScaleFactor 1.00
[SegmentNames&Hierarchy]
#CHILD	PARENT
Pinger_Root GLOBAL
Pelvis Pinger_Root
L_Hip Pelvis
R_Hip Pelvis
Rear_Leg01 Pelvis
Spine1 Pelvis
L_Leg01 L_Hip
L_Leg02 L_Leg01
L_Leg03 L_Leg02
L_Foot L_Leg03
L_Toe1_01 L_Foot
L_Toe2_01 L_Foot
L_Toe3_01 L_Foot
planeAlignerLeft L_Foot
L_Toe1_02 L_Toe1_01
L_Toe1_03 L_Toe1_02
L_Toe2_02 L_Toe2_01
L_Toe2_03 L_Toe2_02
L_Toe3_02 L_Toe3_01
L_Toe3_03 L_Toe3_02
planeLockWeightLeft planeAlignerLeft
R_Leg01 R_Hip
R_Leg02 R_Leg01
R_Leg03 R_Leg02
R_Foot R_Leg03
planeAlignerRight R_Foot
R_Toe1_01 R_Foot
R_Toe2_01 R_Foot
R_Toe3_01 R_Foot
planeLockWeightRight planeAlignerRight
R_Toe1_02 R_Toe1_01
R_Toe1_03 R_Toe1_02
R_Toe2_02 R_Toe2_01
R_Toe2_03 R_Toe2_02
R_Toe3_02 R_Toe3_01
R_Toe3_03 R_Toe3_02
Rear_Leg02 Rear_Leg01
Rear_Leg03 Rear_Leg02
Rear_Leg04 Rear_Leg03
Rear_Foot Rear_Leg04
planeAlignerCenter Rear_Foot
Rear_Toe1_01 Rear_Foot
Rear_Toe2_01 Rear_Foot
Rear_Toe3_01 Rear_Foot
planeLockWeightCenter planeAlignerCenter
Rear_Toe1_02 Rear_Toe1_01
Rear_Toe1_03 Rear_Toe1_02
Rear_Toe2_02 Rear_Toe2_01
Rear_Toe2_03 Rear_Toe2_02
Rear_Toe3_02 Rear_Toe3_01
Rear_Toe3_03 Rear_Toe3_02
Back_Bone Spine1
Head Spine1
Motor_Bone Back_Bone
Ping_Mechanism Back_Bone
BN_LookIK Head
bottomMouth Head
L_Mouth01 Head
L_mouthFront Head
mouthGun Head
R_Mouth01 Head
R_mouthFront Head
TopMouth Head
weapon_bone Head
[BasePosition]
#SegmentName Tx, Ty, Tz, Rx, Ry, Rz, BoneLength
Pinger_Root 0.000000 0.000000 0.000000 -90.000000 0.000000 0.000000 10.000000 
Pelvis 0.000000 0.000000 0.000000 0.000000 0.000000 0.000000 10.000000 
L_Hip 0.000000 0.000000 0.000000 0.000000 0.000000 0.000000 10.000000 
R_Hip 0.000000 0.000000 0.000000 0.000000 0.000000 0.000000 10.000000 
Rear_Leg01 0.000000 0.000000 0.000000 0.000000 0.000000 0.000000 10.000000 
Spine1 0.000000 0.000000 0.000000 0.000000 0.000000 0.000000 10.000000 
L_Leg01 0.000000 0.000000 0.000000 0.000000 0.000000 0.000000 10.000000 
L_Leg02 0.000000 0.000000 0.000000 0.000000 0.000000 0.000000 10.000000 
L_Leg03 0.000000 0.000000 0.000000 0.000000 0.000000 0.000000 10.000000 
L_Foot 0.000000 0.000000 0.000000 0.000000 0.000000 0.000000 10.000000 
L_Toe1_01 0.000000 0.000000 0.000000 0.000000 0.000000 0.000000 10.000000 
L_Toe2_01 0.000000 0.000000 0.000000 0.000000 0.000000 0.000000 10.000000 
L_Toe3_01 0.000000 0.000000 0.000000 0.000000 0.000000 0.000000 10.000000 
planeAlignerLeft 0.000000 0.000000 0.000000 0.000000 0.000000 0.000000 10.000000 
L_Toe1_02 0.000000 0.000000 0.000000 0.000000 0.000000 0.000000 10.000000 
L_Toe1_03 0.000000 0.000000 0.000000 0.000000 0.000000 0.000000 10.000000 
L_Toe2_02 0.000000 0.000000 0.000000 0.000000 0.000000 0.000000 10.000000 
L_Toe2_03 0.000000 0.000000 0.000000 0.000000 0.000000 0.000000 10.000000 
L_Toe3_02 0.000000 0.000000 0.000000 0.000000 0.000000 0.000000 10.000000 
L_Toe3_03 0.000000 0.000000 0.000000 0.000000 0.000000 0.000000 10.000000 
planeLockWeightLeft 0.000000 0.000000 0.000000 0.000000 0.000000 0.000000 10.000000 
R_Leg01 0.000000 0.000000 0.000000 0.000000 0.000000 0.000000 10.000000 
R_Leg02 0.000000 0.000000 0.000000 0.000000 0.000000 0.000000 10.000000 
R_Leg03 0.000000 0.000000 0.000000 0.000000 0.000000 0.000000 10.000000 
R_Foot 0.000000 0.000000 0.000000 0.000000 0.000000 0.000000 10.000000 
planeAlignerRight 0.000000 0.000000 0.000000 0.000000 0.000000 0.000000 10.000000 
R_Toe1_01 0.000000 0.000000 0.000000 0.000000 0.000000 0.000000 10.000000 
R_Toe2_01 0.000000 0.000000 0.000000 0.000000 0.000000 0.000000 10.000000 
R_Toe3_01 0.000000 0.000000 0.000000 0.000000 0.000000 0.000000 10.000000 
planeLockWeightRight 0.000000 0.000000 0.000000 0.000000 0.000000 0.000000 10.000000 
R_Toe1_02 0.000000 0.000000 0.000000 0.000000 0.000000 0.000000 10.000000 
R_Toe1_03 0.000000 0.000000 0.000000 0.000000 0.000000 0.000000 10.000000 
R_Toe2_02 0.000000 0.000000 0.000000 0.000000 0.000000 0.000000 10.000000 
R_Toe2_03 0.000000 0.000000 0.000000 0.000000 0.000000 0.000000 10.000000 
R_Toe3_02 0.000000 0.000000 0.000000 0.000000 0.000000 0.000000 10.000000 
R_Toe3_03 0.000000 0.000000 0.000000 0.000000 0.000000 0.000000 10.000000 
Rear_Leg02 0.000000 0.000000 0.000000 0.000000 0.000000 0.000000 10.000000 
Rear_Leg03 0.000000 0.000000 0.000000 0.000000 0.000000 0.000000 10.000000 
Rear_Leg04 0.000000 0.000000 0.000000 0.000000 0.000000 0.000000 10.000000 
Rear_Foot 0.000000 0.000000 0.000000 0.000000 0.000000 0.000000 10.000000 
planeAlignerCenter 0.000000 0.000000 0.000000 0.000000 0.000000 0.000000 10.000000 
Rear_Toe1_01 0.000000 0.000000 0.000000 0.000000 0.000000 0.000000 10.000000 
Rear_Toe2_01 0.000000 0.000000 0.000000 0.000000 0.000000 0.000000 10.000000 
Rear_Toe3_01 0.000000 0.000000 0.000000 0.000000 0.000000 0.000000 10.000000 
planeLockWeightCenter 0.000000 0.000000 0.000000 0.000000 0.000000 0.000000 10.000000 
Rear_Toe1_02 0.000000 0.000000 0.000000 0.000000 0.000000 0.000000 10.000000 
Rear_Toe1_03 0.000000 0.000000 0.000000 0.000000 0.000000 0.000000 10.000000 
Rear_Toe2_02 0.000000 0.000000 0.000000 0.000000 0.000000 0.000000 10.000000 
Rear_Toe2_03 0.000000 0.000000 0.000000 0.000000 0.000000 0.000000 10.000000 
Rear_Toe3_02 0.000000 0.000000 0.000000 0.000000 0.000000 0.000000 10.000000 
Rear_Toe3_03 0.000000 0.000000 0.000000 0.000000 0.000000 0.000000 10.000000 
Back_Bone 0.000000 0.000000 0.000000 0.000000 0.000000 0.000000 10.000000 
Head 0.000000 0.000000 0.000000 0.000000 0.000000 0.000000 10.000000 
Motor_Bone 0.000000 0.000000 0.000000 0.000000 0.000000 0.000000 10.000000 
Ping_Mechanism 0.000000 0.000000 0.000000 0.000000 0.000000 0.000000 10.000000 
BN_LookIK 0.000000 0.000000 0.000000 0.000000 0.000000 0.000000 10.000000 
bottomMouth 0.000000 0.000000 0.000000 0.000000 0.000000 0.000000 10.000000 
L_Mouth01 0.000000 0.000000 0.000000 0.000000 0.000000 0.000000 10.000000 
L_mouthFront 0.000000 0.000000 0.000000 0.000000 0.000000 0.000000 10.000000 
mouthGun 0.000000 0.000000 0.000000 0.000000 0.000000 0.000000 10.000000 
R_Mouth01 0.000000 0.000000 0.000000 0.000000 0.000000 0.000000 10.000000 
R_mouthFront 0.000000 0.000000 0.000000 0.000000 0.000000 0.000000 10.000000 
TopMouth 0.000000 0.000000 0.000000 0.000000 0.000000 0.000000 10.000000 
weapon_bone 0.000000 0.000000 0.000000 0.000000 0.000000 0.000000 10.000000 
#Beginning of Data. Separated by tabs
#Fr	Tx	Ty	Tz	Rx	Ry	Rz	SF
[Pinger_Root]
27 0.000000 0.000000 0.000000 -0.000075 -0.000000 -0.000020 0.000000
28 0.000000 0.000000 0.000000 -0.000075 -0.000000 -0.000020 0.000000
29 0.000000 0.000000 0.000000 -0.000075 -0.000000 -0.000020 0.000000
[Pelvis]
27 -777.978271 489.691162 4363.953613 -158.066528 -81.463600 150.184052 4459.724121
28 -779.924255 488.748352 4360.307617 -155.717026 -81.250801 147.807892 4456.393066
29 -781.348389 488.112244 4354.428711 -153.483154 -81.023880 145.547363 4450.821289
[L_Hip]
27 5.766392 125.831482 872.656799 160.158691 -45.484905 122.312202 881.701050
28 5.766392 125.831482 872.656799 160.158691 -45.484905 122.312202 881.701050
29 5.766392 125.831482 872.656799 160.158691 -45.484905 122.312202 881.701050
[R_Hip]
27 5.765438 125.836372 -872.654907 38.087841 49.812687 125.703735 881.699829
28 5.765438 125.836372 -872.654907 38.087841 49.812687 125.703735 881.699829
29 5.765438 125.836372 -872.654907 38.087841 49.812687 125.703735 881.699829
[Rear_Leg01]
27 -192.298416 -925.602966 -0.001907 168.798553 6.664337 -164.785828 945.367432
28 -192.298416 -925.602966 -0.001907 168.788422 6.649857 -165.156967 945.367432
29 -192.298416 -925.602966 -0.001907 168.783203 6.634913 -165.620422 945.367432
[Spine1]
27 290.604584 5.007505 0.000477 26.332212 -9.674888 -1.619330 290.647736
28 290.604584 5.007505 0.000477 26.195051 -9.781150 -1.582863 290.647736
29 290.604584 5.007505 0.000477 26.057781 -9.887322 -1.546126 290.647736
[L_Leg01]
27 761.932007 -0.002384 -0.069261 16.982502 -21.530499 3.286518 761.932068
28 761.932007 -0.002384 -0.069261 16.595413 -21.658581 3.992683 761.932068
29 761.932007 -0.002384 -0.069261 16.086674 -21.814337 4.991789 761.932068
[L_Leg02]
27 1441.140503 -0.000954 -0.000715 3.611597 -0.192532 -138.218979 1441.140503
28 1441.140503 -0.000954 -0.000715 3.647211 -0.191886 -138.548920 1441.140503
29 1441.140503 -0.000954 -0.000715 3.714860 -0.192370 -139.147537 1441.140503
[L_Leg03]
27 1686.963989 -0.000715 -0.000954 -0.034059 0.012529 119.320084 1686.963989
28 1686.963989 -0.000715 -0.000954 -0.034054 0.012543 119.365219 1686.963989
29 1686.963989 -0.000715 -0.000954 -0.034049 0.012556 119.410355 1686.963989
[L_Foot]
27 3041.570068 -30.715107 11.297464 12.511735 12.463723 54.756882 3041.746094
28 3041.570068 -30.715107 11.297464 12.546093 12.430338 54.788780 3041.746094
29 3041.570068 -30.715107 11.297464 12.580425 12.396937 54.820652 3041.746094
[L_Toe1_01]
27 -188.216690 -224.732346 -21.137953 94.250755 -14.030174 -176.982300 293.899567
28 -188.216690 -224.732346 -21.137953 94.250191 -14.026551 -176.984207 293.899567
29 -188.216690 -224.732346 -21.137953 94.249641 -14.022933 -176.986130 293.899567
[L_Toe2_01]
27 200.746536 -219.926590 148.838394 -86.962540 -38.143902 -51.623238 332.896027
28 200.746536 -219.926590 148.838394 -86.962540 -38.143902 -51.623238 332.896027
29 200.746536 -219.926590 148.838394 -86.962540 -38.143902 -51.623238 332.896027
[L_Toe3_01]
27 188.832520 -219.859131 -191.078659 -96.244041 5.651123 -57.931507 347.140900
28 188.832520 -219.859131 -191.078659 -96.244041 5.651123 -57.931507 347.140900
29 188.832520 -219.859131 -191.078659 -96.244041 5.651123 -57.931507 347.140900
[planeAlignerLeft]
27 0.812531 -811.448792 -0.314951 0.000000 -90.000000 -90.001900 811.449280
28 0.812531 -811.448792 -0.314951 0.000000 -90.000000 -90.001900 811.449280
29 0.812531 -811.448792 -0.314951 0.000000 -90.000000 -90.001900 811.449280
[L_Toe1_02]
27 413.761139 0.000477 0.000000 0.001661 0.068034 0.001661 413.761139
28 413.761139 0.000477 0.000000 0.001661 0.067774 0.001661 413.761139
29 413.761139 0.000477 0.000000 0.001661 0.067514 0.001661 413.761139
[L_Toe1_03]
27 464.317322 0.000358 -0.000089 0.001673 -0.448396 -0.003292 464.317322
28 464.317322 0.000358 -0.000089 0.001673 -0.448396 -0.003292 464.317322
29 464.317322 0.000358 -0.000089 0.001673 -0.448396 -0.003292 464.317322
[L_Toe2_02]
27 342.235809 -0.000477 0.000238 0.001186 -73.544350 0.001186 342.235809
28 342.235809 -0.000477 0.000238 0.001186 -73.536293 0.001186 342.235809
29 342.235809 -0.000477 0.000238 0.001186 -73.528275 0.001186 342.235809
[L_Toe2_03]
27 420.210846 -0.000715 0.000000 -0.045180 88.483406 -0.041683 420.210846
28 420.210846 -0.000715 0.000000 -0.045055 88.479027 -0.041558 420.210846
29 420.210846 -0.000715 0.000000 -0.044931 88.474785 -0.041434 420.210846
[L_Toe3_02]
27 329.270111 0.000954 0.000000 0.004676 -84.399895 0.004676 329.270111
28 329.270111 0.000954 0.000000 0.004676 -84.394508 0.004676 329.270111
29 329.270111 0.000954 0.000000 0.004676 -84.389130 0.004676 329.270111
[L_Toe3_03]
27 439.137451 -0.001907 0.000954 179.992569 53.575073 179.999924 439.137451
28 439.137451 -0.001907 0.000954 179.992569 53.575073 179.999924 439.137451
29 439.137451 -0.001907 0.000954 179.992569 53.575073 179.999924 439.137451
[planeLockWeightLeft]
27 -0.000954 0.000238 -0.000305 -0.011826 -0.004376 0.005620 0.001029
28 -0.000954 0.000238 -0.000305 -0.011826 -0.004376 0.005620 0.001029
29 -0.000954 0.000238 -0.000305 -0.011826 -0.004376 0.005620 0.001029
[R_Leg01]
27 761.455627 -0.001907 -0.000358 120.663124 7.532461 44.728004 761.455688
28 761.455627 -0.001907 -0.000358 120.770546 6.892137 44.338329 761.455688
29 761.455627 -0.001907 -0.000358 120.882179 6.252542 43.947926 761.455688
[R_Leg02]
27 1441.140625 0.000000 -0.000238 0.541022 0.085240 -65.478592 1441.140625
28 1441.140625 0.000000 -0.000238 0.529652 0.086392 -65.984947 1441.140625
29 1441.140625 0.000000 -0.000238 0.504405 0.091316 -66.723503 1441.140625
[R_Leg03]
27 1686.963989 0.000954 0.001431 0.017728 -0.006288 114.817451 1686.963989
28 1686.963989 0.000954 0.001431 0.018609 -0.007694 114.929001 1686.963989
29 1686.963989 0.000954 0.001431 0.018587 -0.007745 115.242317 1686.963989
[R_Foot]
27 3041.560059 -30.531288 -11.204481 9.128702 -23.659073 31.576002 3041.734131
28 3041.560059 -30.531288 -11.204481 9.174678 -23.652670 31.572800 3041.734131
29 3041.560059 -30.531288 -11.204481 9.220654 -23.646261 31.569595 3041.734131
[planeAlignerRight]
27 -0.635147 -812.270569 -0.364304 0.000000 -89.960434 -90.005180 812.270874
28 -0.635147 -812.270569 -0.364304 0.000000 -89.960434 -90.005180 812.270874
29 -0.635147 -812.270569 -0.364304 0.000000 -89.960434 -90.005180 812.270874
[R_Toe1_01]
27 -188.383347 -224.864899 21.052242 77.052345 -3.422819 -171.412033 294.101532
28 -188.383347 -224.864899 21.052242 77.053841 -3.432904 -171.429749 294.101532
29 -188.383347 -224.864899 21.052242 77.055344 -3.442987 -171.447464 294.101532
[R_Toe2_01]
27 200.637817 -220.002121 -148.787384 -90.783440 29.325537 -59.470028 332.857574
28 200.637817 -220.002121 -148.787384 -90.772583 29.323195 -59.450840 332.857574
29 200.637817 -220.002121 -148.787384 -90.761726 29.320848 -59.431648 332.857574
[R_Toe3_01]
27 188.606735 -220.092957 191.126343 -71.981667 -10.278540 -75.537384 347.192566
28 188.606735 -220.092957 191.126343 -71.977158 -10.288329 -75.524750 347.192566
29 188.606735 -220.092957 191.126343 -71.972626 -10.298114 -75.512070 347.192566
[planeLockWeightRight]
27 -0.000477 0.000000 0.000000 -0.011823 -0.004379 -0.000027 0.000477
28 -0.000477 0.000000 0.000000 -0.011823 -0.004379 -0.000027 0.000477
29 -0.000477 0.000000 0.000000 -0.011823 -0.004379 -0.000027 0.000477
[R_Toe1_02]
27 413.762085 0.000477 -0.000119 0.000006 -25.434675 -0.000005 413.762085
28 413.762085 0.000477 -0.000119 0.000006 -25.434675 -0.000005 413.762085
29 413.762085 0.000477 -0.000119 0.000006 -25.434675 -0.000005 413.762085
[R_Toe1_03]
27 464.317810 0.000000 0.001088 0.007162 71.138237 0.007162 464.317810
28 464.317810 0.000000 0.001088 0.007171 71.161224 0.007171 464.317810
29 464.317810 0.000000 0.001088 0.007180 71.184273 0.007180 464.317810
[R_Toe2_02]
27 342.234741 -0.000954 0.000238 0.001198 -66.983322 0.001198 342.234741
28 342.234741 -0.000954 0.000238 0.001198 -67.001755 0.001198 342.234741
29 342.234741 -0.000954 0.000238 0.001198 -67.020218 0.001198 342.234741
[R_Toe2_03]
27 420.210846 0.000715 -0.000268 0.008015 73.159485 0.008015 420.210846
28 420.210846 0.000715 -0.000268 0.008026 73.183685 0.008026 420.210846
29 420.210846 0.000715 -0.000268 0.008038 73.207954 0.008038 420.210846
[R_Toe3_02]
27 329.270355 -0.000477 -0.000954 -0.006142 -69.776169 0.006306 329.270355
28 329.270355 -0.000477 -0.000954 -0.005412 -69.788223 0.005798 329.270355
29 329.270355 -0.000477 -0.000954 -0.004681 -69.800270 0.005289 329.270355
[R_Toe3_03]
27 439.137939 0.000238 0.001431 0.007920 72.956909 0.007920 439.137939
28 439.137939 0.000238 0.001431 0.007932 72.981979 0.007932 439.137939
29 439.137939 0.000238 0.001431 0.007943 73.007050 0.007943 439.137939
[Rear_Leg02]
27 1162.777710 -0.029802 0.005960 1.252066 -2.704112 -136.743866 1162.777710
28 1162.777710 -0.029802 0.005960 1.250645 -2.704740 -136.722549 1162.777710
29 1162.777710 -0.029802 0.005960 1.249224 -2.705368 -136.701218 1162.777710
[Rear_Leg03]
27 607.192505 -0.013351 -0.073195 0.010459 -0.005173 68.989815 607.192505
28 607.192505 -0.013351 -0.073195 0.010459 -0.005173 68.993423 607.192505
29 607.192505 -0.013351 -0.073195 0.010459 -0.005174 68.997017 607.192505
[Rear_Leg04]
27 995.874512 -0.020504 -0.011921 -0.040328 -0.018511 68.051033 995.874573
28 995.874512 -0.020504 -0.011921 -0.040326 -0.018516 68.035683 995.874573
29 995.874512 -0.020504 -0.011921 -0.040323 -0.018522 68.020348 995.874573
[Rear_Foot]
27 3096.176270 -0.067472 -0.041425 -15.921865 80.501358 172.722992 3096.176270
28 3096.176270 -0.067472 -0.041425 -15.864182 80.466240 172.773285 3096.176270
29 3096.176270 -0.067472 -0.041425 -15.806893 80.431107 172.823166 3096.176270
[planeAlignerCenter]
27 0.350077 0.966311 -838.790894 0.000009 0.000003 -179.999985 838.791565
28 0.350077 0.966311 -838.790894 0.000009 0.000003 -179.999985 838.791565
29 0.350077 0.966311 -838.790894 0.000009 0.000003 -179.999985 838.791565
[Rear_Toe1_01]
27 0.653352 83.966492 -371.173737 0.288091 41.914127 90.413170 380.553192
28 0.653352 83.966492 -371.173737 0.288091 41.914127 90.413170 380.553192
29 0.653352 83.966492 -371.173737 0.288091 41.914127 90.413170 380.553192
[Rear_Toe2_01]
27 178.200760 -294.826019 -362.060547 -7.196267 34.406261 -66.271294 499.765686
28 178.200760 -294.826019 -362.060547 -7.196267 34.406261 -66.271294 499.765686
29 178.200760 -294.826019 -362.060547 -7.196267 34.406261 -66.271294 499.765686
[Rear_Toe3_01]
27 -153.359680 -308.780914 -362.060852 3.289418 33.518005 -112.540970 499.952881
28 -153.359680 -308.780914 -362.060852 3.289418 33.518005 -112.540970 499.952881
29 -153.359680 -308.780914 -362.060852 3.289418 33.518005 -112.540970 499.952881
[planeLockWeightCenter]
27 -0.000062 0.000238 0.000000 -0.011814 -0.004373 -0.000015 0.000246
28 -0.000062 0.000238 0.000000 -0.011814 -0.004373 -0.000015 0.000246
29 -0.000062 0.000238 0.000000 -0.011814 -0.004373 -0.000015 0.000246
[Rear_Toe1_02]
27 379.707825 0.194073 0.000477 -0.000242 -31.676744 0.006934 379.707855
28 379.707825 0.194073 0.000477 -0.000242 -31.676744 0.006934 379.707855
29 379.707825 0.194073 0.000477 -0.000242 -31.676744 0.006934 379.707855
[Rear_Toe1_03]
27 500.129700 0.165701 0.000119 -0.000103 51.902481 0.007295 500.129761
28 500.129700 0.165701 0.000119 -0.000103 51.902485 0.007295 500.129761
29 500.129700 0.165701 0.000119 -0.000103 51.902485 0.007295 500.129761
[Rear_Toe2_02]
27 340.494507 0.000238 -0.000954 0.001192 -69.854523 0.001192 340.494507
28 340.494507 0.000238 -0.000954 0.001192 -69.854523 0.001192 340.494507
29 340.494507 0.000238 -0.000954 0.001192 -69.854523 0.001192 340.494507
[Rear_Toe2_03]
27 433.103577 0.000000 0.000238 0.006696 69.810326 0.006696 433.103546
28 433.103577 0.000000 0.000238 0.006696 69.810303 0.006696 433.103546
29 433.103577 0.000000 0.000238 0.006696 69.810326 0.006696 433.103546
[Rear_Toe3_02]
27 340.494141 -0.000358 -0.000477 0.008288 -67.274704 -0.009460 340.494171
28 340.494141 -0.000358 -0.000477 0.008288 -67.274704 -0.009460 340.494171
29 340.494141 -0.000358 -0.000477 0.008288 -67.274704 -0.009460 340.494171
[Rear_Toe3_03]
27 433.103577 0.001431 -0.000238 -0.000972 65.958984 -0.004547 433.103546
28 433.103577 0.001431 -0.000238 -0.000972 65.958961 -0.004547 433.103546
29 433.103577 0.001431 -0.000238 -0.000972 65.959007 -0.004547 433.103546
[Back_Bone]
27 1312.175781 -701.934692 0.000954 0.000023 -0.000007 -85.606667 1488.125488
28 1312.175781 -701.934692 0.000954 0.000023 -0.000007 -85.606667 1488.125488
29 1312.175781 -701.934692 0.000954 0.000023 -0.000007 -85.606667 1488.125488
[Head]
27 1406.159424 809.709290 0.001431 0.840534 0.434679 10.336326 1622.625488
28 1406.159424 809.709290 0.001431 0.638433 -0.160611 9.507544 1622.625488
29 1406.159424 809.709290 0.001431 0.362429 -0.601421 8.742487 1622.625488
[Motor_Bone]
27 1158.364380 -417.834747 0.000477 -0.000105 0.000046 -105.985291 1231.419434
28 1158.364380 -417.834747 0.000477 -0.000105 0.000046 -105.985291 1231.419434
29 1158.364380 -417.834747 0.000477 -0.000105 0.000046 -105.985291 1231.419434
[Ping_Mechanism]
27 1215.237793 -433.297150 0.000954 0.000103 -0.000053 82.120995 1290.174072
28 1215.237793 -433.297150 0.000954 0.000103 -0.000053 82.120995 1290.174072
29 1215.237793 -433.297150 0.000954 0.000103 -0.000053 82.120995 1290.174072
[BN_LookIK]
27 193.241119 1380.371704 -0.002861 0.000000 89.965736 -31.038179 1393.832153
28 193.241119 1380.371704 -0.002861 0.000000 89.965736 -31.038179 1393.832153
29 193.241119 1380.371704 -0.002861 0.000000 89.965736 -31.038179 1393.832153
[bottomMouth]
27 -435.092926 615.759399 -0.000954 -0.000022 0.000016 73.527184 753.966492
28 -435.092926 615.759399 -0.000954 -0.000022 0.000016 73.527184 753.966492
29 -435.092926 615.759399 -0.000954 -0.000022 0.000016 73.527184 753.966492
[L_Mouth01]
27 554.440979 7.658243 838.222046 150.204178 23.759130 109.605339 1005.027161
28 554.440979 7.658243 838.222046 150.204178 23.759130 109.605339 1005.027161
29 554.440979 7.658243 838.222046 150.204178 23.759130 109.605339 1005.027161
[L_mouthFront]
27 551.629089 934.514771 339.150421 0.000081 2.804060 79.119301 1136.941284
28 551.629089 934.514771 339.150421 0.000081 2.804060 79.119301 1136.941284
29 551.629089 934.514771 339.150421 0.000081 2.804060 79.119301 1136.941284
[mouthGun]
27 55.332661 1627.420898 0.000000 0.000023 0.000009 -11.038128 1628.361328
28 55.332661 1627.420898 0.000000 0.000023 0.000009 -11.038128 1628.361328
29 55.332661 1627.420898 0.000000 0.000023 0.000009 -11.038128 1628.361328
[R_Mouth01]
27 554.442383 7.659197 -838.223938 29.795891 -23.759109 109.605331 1005.029541
28 554.442383 7.659197 -838.223938 29.795891 -23.759109 109.605331 1005.029541
29 554.442383 7.659197 -838.223938 29.795891 -23.759109 109.605331 1005.029541
[R_mouthFront]
27 551.629089 934.514282 -339.151367 0.000029 -2.803930 79.119133 1136.941162
28 551.629089 934.514282 -339.151367 0.000029 -2.803930 79.119133 1136.941162
29 551.629089 934.514282 -339.151367 0.000029 -2.803930 79.119133 1136.941162
[TopMouth]
27 461.269867 -56.106091 -0.008583 -0.000059 -0.000268 92.025169 464.669525
28 461.269867 -56.106091 -0.008583 -0.000059 -0.000268 92.025169 464.669525
29 461.269867 -56.106091 -0.008583 -0.000059 -0.000268 92.025169 464.669525
[weapon_bone]
27 -987.239868 1448.372803 0.001431 0.000000 89.965736 -31.038221 1752.833740
28 -987.239868 1448.372803 0.001431 0.000000 89.965736 -31.038221 1752.833740
29 -987.239868 1448.372803 0.001431 0.000000 89.965736 -31.038221 1752.833740
